<svg width="20" height="20" viewBox="0 0 14 14" fill="none" xmlns="http://www.w3.org/2000/svg">
<path d="M9.51855 1.83332C9.69138 1.65497 9.89797 1.51277 10.1263 1.41503C10.3546 1.31729 10.6001 1.26594 10.8485 1.26399C11.0968 1.26204 11.3431 1.30951 11.5729 1.40365C11.8027 1.4978 12.0115 1.63672 12.1872 1.81234C12.3628 1.98796 12.5017 2.19676 12.5958 2.42659C12.69 2.65642 12.7375 2.90268 12.7355 3.15104C12.7335 3.39939 12.6822 3.64488 12.5845 3.8732C12.4867 4.10152 12.3445 4.30811 12.1662 4.48094L11.4328 5.21428L8.78521 2.56666L9.51855 1.83332ZM8.28045 3.07142L2.47712 8.87475C2.26759 9.08428 2.11521 9.34428 2.03521 9.62999L1.29855 12.2609C1.28152 12.3219 1.28102 12.3863 1.2971 12.4476C1.31317 12.5088 1.34523 12.5647 1.39001 12.6095C1.43478 12.6543 1.49065 12.6863 1.55189 12.7024C1.61314 12.7185 1.67756 12.718 1.73855 12.7009L4.36902 11.9643C4.65471 11.8843 4.91498 11.7321 5.12474 11.5224L10.9285 5.71952L8.28093 3.0719L8.28045 3.07142Z" fill="#25AB70"/>
</svg>
